<svg id="Layer_1" data-name="Layer 1" xmlns="http://www.w3.org/2000/svg" viewBox="0 0 384.27 388.31"><defs><style>.cls-1{fill:#ef4249;}.cls-2{fill:#58595b;}.cls-3{fill:#414042;}.cls-4{fill:#ffde17;}</style></defs><title>cardinal-vr</title><path class="cls-1" d="M253.94,332.76c1.14-3.25,3.37-4.47,7-3.64l-.54,2.75a18.74,18.74,0,0,0-3.5.73,1.15,1.15,0,0,0-.51.66Z" transform="translate(-8.15 -3.96)"/><path class="cls-1" d="M199.24,266c.17.42-.79,1.83-1,1.78-2.32-.64-4.89-1-6.17-3.53l2.15-1c0-.13-.06-.26-.1-.39l2.23-.56a11.87,11.87,0,0,0,1,1.77C198,264.77,198.93,265.25,199.24,266Z" transform="translate(-8.15 -3.96)"/><path d="M305,364.3c1.5-2.63,3.33-3.11,5.19-1.37l.76,1.43c-1.17.63-2.35,1.25-3.53,1.86l-1.83.92-1.17-2.47A1.06,1.06,0,0,0,305,364.3Z" transform="translate(-8.15 -3.96)"/><path d="M300.28,233.36l4.27,1.65C301.89,236.29,301.19,236,300.28,233.36Z" transform="translate(-8.15 -3.96)"/><path d="M320.77,9.18c-7.39,0-14.78,0-22.17.13-4.32.07-8.65.21-13,.38l-.09-2.51c7.28-.32,14.56-.68,21.83-.84,8.64-.2,17.28.13,25.92.12,11.91,0,23.83.06,35.73-.23,4.38-.11,8.72-1.2,13.1-1.75a36.11,36.11,0,0,1,7-.47,4.22,4.22,0,0,1,.75.11l-.19,1.11a3.57,3.57,0,0,0-2,.26,73.07,73.07,0,0,1-23.8,3.75c-6.31-.17-12.63-.12-18.94-.09-7.29,0-14.56,2-21.86.06A8.8,8.8,0,0,0,320.77,9.18Z" transform="translate(-8.15 -3.96)"/><path d="M289.32,362.12a32.17,32.17,0,0,1,3.35-1.44c.19.45.39.89.58,1.34L289.91,364A9.18,9.18,0,0,1,289.32,362.12Z" transform="translate(-8.15 -3.96)"/><path d="M288.9,375.72a5.12,5.12,0,0,1-1.84.27,14.22,14.22,0,0,1-.21-1.56c0-.09,0-.19,0-.29.18-1.47.55-2.91.73-4.38.27-2.12,1.05-2.62,2.67-1.31s2.7.57,3.75-.4c2.54-2.35,5.56-3.11,8.9-3.19a6.26,6.26,0,0,0,1.48-.19l1.17,2.47c-3.76,1.82-7.66,3.39-11.42,5.23C292.3,373.28,290.69,374.66,288.9,375.72Z" transform="translate(-8.15 -3.96)"/><path class="cls-1" d="M310.17,362.93c-1.86-1.74-3.69-1.26-5.19,1.37a1.06,1.06,0,0,1-.58.37,6.26,6.26,0,0,1-1.48.19c-3.34.08-6.36.84-8.9,3.19-1.05,1-2.2,1.66-3.75.4s-2.4-.81-2.67,1.31c-.18,1.47-.55,2.91-.73,4.38,0,.1,0,.2,0,.29l-2.89,0a1.27,1.27,0,0,0-.21-.8,3,3,0,0,0-2.46-.49,5.18,5.18,0,0,0-2.26,1.39c-1.67,1.58-3.27,1.35-4.36-.71-1.24-2.35-.44-7.1,1.56-9,1.17-1.09,1.68-2.21.09-3.24s-1.85-2.42-1.81-4.1a21,21,0,0,0-.26-2.7c-4.1,2.06-5.94,8.19-4,12.13.4.82.86,2.31.49,2.66-.81.79-2.31,1.67-3.2,1.4-2.21-.67-3.27.42-4.32,2.07-2.17-1.25-3.4-.18-4.65,1.48-.44.6-1.72.57-2.62.83-.24-.84-.93-1.92-.64-2.48,1.22-2.32-.07-3.05-1.91-3.52-1.43-.37-3.32-.17-4.27-1-2-1.79-3-1.69-4,1.74l-4.1-4.83.54-.7a28.74,28.74,0,0,0,4.37-.4c2.12-.51,2.35-1.83,1-3.32a73.23,73.23,0,0,0,6.37-4.67c.78-.69.9-2.11,1.32-3.2-1.16,0-2.32,0-3.49,0-.13,0-.26-.12-.54-.25,1.67-1.65,2-5,4.91-3.88,1.69-2.43,3.15-4.46,4.53-6.55,1.79-2.7,3.55-5.37,6.94-6.32.41-.11.73-.63,1-1,2.45-3.15,4.57-6.63,7.4-9.39,3.41-3.34,7.44-6.05,11.17-9.07a16.22,16.22,0,0,0,1.62-1.87,35.59,35.59,0,0,1,3.52-3.83c2-1.7,4.32-3,6.28-4.77,2.35-2.09,4.5-4.41,6.64-6.73a6.15,6.15,0,0,0,.81-2.19,27.5,27.5,0,0,1,1.41-3.94,19.16,19.16,0,0,1,2.14-2.4c3.32-4.23,6.61-8.48,10-12.85a3.55,3.55,0,0,1,.58,4.59c-2.28,4.09-2,8.4-1.5,12.79.34,3.21.59,6.44.7,9.66.12,3.48-.2,7,.1,10.44.54,6.26,1.42,12.49,2.09,18.75.11,1.05.24,2.5-.33,3.15-1.94,2.16-.56,4.2-.18,6.29a16.87,16.87,0,0,0,.77,2.32l-1.51-.39c-.71,1-1.15,2.29-1.78,2.4a20.62,20.62,0,0,1-5.44.11c-4-.38-4.81.51-3.72,4.35.49,1.74,1,3.16-1.61,3.74-.76.17-1.18,1.85-1.75,2.83,1.11,0,2.37.41,3.31,0a29.19,29.19,0,0,0,4.76-2.84c.34-.23.44-.81.66-1.22l1.51-2.66a21.69,21.69,0,0,1,.7,3.33,2.71,2.71,0,0,1-.75,1.81C313.92,359.22,312.16,360.93,310.17,362.93ZM293.25,362c-.19-.45-.39-.89-.58-1.34a32.17,32.17,0,0,0-3.35,1.44,9.18,9.18,0,0,0,.59,1.85Z" transform="translate(-8.15 -3.96)"/><path class="cls-1" d="M256.22,334.21a2.64,2.64,0,0,1,.21-.95,1.15,1.15,0,0,1,.51-.66,18.74,18.74,0,0,1,3.5-.73,33.9,33.9,0,0,1-2.08,2.81,5.89,5.89,0,0,1-1.36.88C256.72,335.11,256.21,334.65,256.22,334.21Z" transform="translate(-8.15 -3.96)"/><path d="M309.35,133.69l-2.65.16c-6.88.43-13.77.84-20.65,1.28-2.82.18-5.6.58-8.21-1.17-.79-.52-2.09-.37-3.16-.35-5.9.09-11.82.51-17.71.29-4.39-.16-8.77-.87-13.16-1.27l.2-2.48c2.05.17,4.07.25,6.1.23,9.15-.06,18.3-.54,27.45-.52,4.38,0,9-1.82,13.16,1.24.16.12.49,0,.74,0,4.31-.08,8.63-.16,12.95-.27,1.6,0,3.2-.06,4.8-.12Z" transform="translate(-8.15 -3.96)"/><path class="cls-2" d="M305.65,72.49c2.61.87,5.18,1.84,7.76,2.8l2.38.89c-.12.38-.23.76-.35,1.14l-7.36-2-.18.35c2.49,1.3,4.91,2.76,7.48,3.86,3.79,1.6,7.69,3,11.53,4.41a7.57,7.57,0,0,0,1.86.71c7.18.61,12.16,5.32,17.46,9.39,1.9,1.47,3.55,3.26,5.37,4.85,3.32,2.91,2.75,6.31,1.54,10-1.53,4.62-4.71,8.14-7.48,12a11.91,11.91,0,0,1-7.87,5.13,68.12,68.12,0,0,0-9.47,2.84,10.89,10.89,0,0,1-8.45-.79,2.1,2.1,0,0,0-3.12.86,4.2,4.2,0,0,1-2.75,1.6c-1.6.15-3.19.22-4.79.27s-3.2.08-4.8.12c-4.32.11-8.64.19-12.95.27-.25,0-.58.09-.74,0-4.13-3.06-8.78-1.23-13.16-1.24-9.15,0-18.3.46-27.45.52-2,0-4-.06-6.1-.23-2.48-.2-5-.53-7.57-1,1.43-.79,2.88-1.55,4.29-2.39l1.12-.66A80,80,0,0,0,250,121c3.21-2.45,4.44-6.1,4.76-10.08.74-9.11,1.92-18.2,2.18-27.32.25-8.42-1.72-16.48-6.82-23.51-2.17-3-4.18-6.09-6.45-9.42a9.47,9.47,0,0,1,2.29.17c4.56,1.49,9.12,3,13.64,4.6,8.11,2.93,16.2,6,24.29,8.95.77.28,1.5.7,2.27,1,3.56,1.47,7.08,3,10.69,4.35C299.73,70.85,302.75,71.51,305.65,72.49Z" transform="translate(-8.15 -3.96)"/><path d="M262.65,52.57c3.29,1.14,7,1.83,9.67,3.81a42.77,42.77,0,0,0,10.2,5c9.52,3.68,19.16,7,28.74,10.57,1,.36,2,.82,2.94,1.19l-.79,2.13c-2.58-1-5.15-1.93-7.76-2.8-2.9-1-5.92-1.64-8.8-2.68-3.61-1.32-7.13-2.88-10.69-4.35-.77-.32-1.5-.74-2.27-1-8.09-3-16.18-6-24.29-8.95-4.52-1.62-9.08-3.11-13.64-4.6a9.47,9.47,0,0,0-2.29-.17c2.27,3.33,4.28,6.43,6.45,9.42,5.1,7,7.07,15.09,6.82,23.51-.26,9.12-1.44,18.21-2.18,27.32-.32,4-1.55,7.63-4.76,10.08a80,80,0,0,1-8.15,5.08l-.8-1.37.83-.52c4.51-2.94,8.39-6.23,9.39-12.2,1.58-9.44,3.31-18.83,3.36-28.44a36.67,36.67,0,0,0-4.69-18.29c-.92-1.65-2.6-3-3.05-4.76-1.25-4.77-5.44-6.76-8.58-9.68a21.33,21.33,0,0,0-6.38-3.7A23.91,23.91,0,0,0,226.22,46c-4.12-.61-8.07-1.86-12.2-2.56l.45-2.63a5.59,5.59,0,0,0,2.22.09c3.87-.82,7.43.29,11,1.26,3.83,1,7.61,2.26,11.43,3.34s7.86,2.06,11.75,3.23S258.76,51.22,262.65,52.57Z" transform="translate(-8.15 -3.96)"/><path class="cls-1" d="M230.63,194.09c-.13.34-.27.67-.4,1L227,193.58l.24-.42Z" transform="translate(-8.15 -3.96)"/><path d="M224.83,312.5l-4.93,2.32c-.17-.35-.34-.71-.52-1.07l4.78-2.63Z" transform="translate(-8.15 -3.96)"/><path class="cls-1" d="M222.82,357.58c-.07-.1-.27-.13-.5-.13l.53-2a3.81,3.81,0,0,0,1.63-.15c2.21-.6,3.05.42,3.37,2.68C226.1,358.26,224.44,359.89,222.82,357.58Z" transform="translate(-8.15 -3.96)"/><path class="cls-1" d="M264.09,11.11c1.68.39,3.55-.15,5.34-.1a28.84,28.84,0,0,1,3.87.62c1.72.31,3.48,1.34,4.89-.83a3.07,3.07,0,0,1,2.22-.89l5.22-.22c4.32-.17,8.65-.31,13-.38,7.39-.12,14.78-.09,22.17-.13a8.8,8.8,0,0,1,2.24,0c7.3,2,14.57,0,21.86-.06,6.31,0,12.63-.08,18.94.09a73.07,73.07,0,0,0,23.8-3.75,3.57,3.57,0,0,1,2-.26c.56.2.66.88.41,2.22a30.67,30.67,0,0,1-2.19,7.09c-3.89,8.45-7.67,17-12,25.17a67.68,67.68,0,0,1-12,16.44c-5.23,5.2-9.7,11.14-14.66,16.61-1.61,1.77-3.66,3.16-3.95,5.75a42.43,42.43,0,0,0,0,4.26,27.82,27.82,0,0,1-3.11-.84c-7-2.87-13.94-5.78-20.91-8.67-.38-.15-.92-.36-1.2-.21a6.28,6.28,0,0,1-5.79.11c-1-.37-2-.83-2.94-1.19-9.58-3.53-19.22-6.89-28.74-10.57a42.77,42.77,0,0,1-10.2-5c-2.71-2-6.38-2.67-9.67-3.81-3.89-1.35-7.81-2.64-11.76-3.82s-7.84-2.12-11.75-3.23-7.6-2.3-11.43-3.34c-3.59-1-7.15-2.08-11-1.26a5.59,5.59,0,0,1-2.22-.09c-.81-.16-1.64-.39-2.44-.49q-4.44-.57-8.89-1.07c-3.79-.42-7.59-.79-11.38-1.19-1.82-.2-2.07-1.25-.77-2.23,3.16-2.37,6.6-4.37,9.72-6.8a36.22,36.22,0,0,1,6.47-3.94c3.76-1.83,7.74-3.2,11.6-4.79,4.36-1.79,9-3,13.47-4.4,1.27-.41,2.53-.85,3.81-1.16,4.57-1.11,9.13-2.22,13.72-3.22,2.71-.59,3.37-.08,3.65,3.09A43.45,43.45,0,0,0,259.21,12,5.74,5.74,0,0,1,264.09,11.11Z" transform="translate(-8.15 -3.96)"/><path d="M269.43,11c-1.79-.05-3.66.49-5.34.1a5.74,5.74,0,0,0-4.88.86,43.45,43.45,0,0,1-5.78,2.66c-.28-3.17-.94-3.68-3.65-3.09-4.59,1-9.15,2.11-13.72,3.22-1.28.31-2.54.75-3.81,1.16-4.5,1.44-9.11,2.61-13.47,4.4-3.86,1.59-7.84,3-11.6,4.79L206,22.76l4.27-2.1c4.61-2.26,9.18-4.64,13.92-6.6,2.51-1,5.35-1.27,8-1.94,6-1.54,12-3.24,18.11-4.64a27.55,27.55,0,0,1,6.68-.4c5.14.12,10.28.69,15.41.57,4.37-.11,8.74-.28,13.1-.47l.09,2.51-5.22.22a3.07,3.07,0,0,0-2.22.89c-1.41,2.17-3.17,1.14-4.89.83A28.84,28.84,0,0,0,269.43,11Z" transform="translate(-8.15 -3.96)"/><path d="M217,130c3.15-1,6.78-.14,10.29-.7,4.94-.79,9.59-2,13.8-4.51l.8,1.37-1.12.66c-1.41.84-2.86,1.6-4.29,2.39,2.57.44,5.09.77,7.57,1l-.2,2.48c-1.46-.13-2.93-.23-4.39-.27-6.42-.15-12.86.4-19.28.69-1.45.06-2.88.28-4.32.43-.07.22-.13.44-.19.66a16.65,16.65,0,0,0,1.87,1.17c2,.88,4,1.74,6,2.49a3,3,0,0,0,2.16.18c3.14-1.84,6.19-.18,9.21.23,1,.13,2.44,1.56,2.45,2.42,0,1.63-1.47,2.25-3.1,1.92a5.9,5.9,0,0,0-7.06,3.3,3.49,3.49,0,0,1-1.79,1.58c-2.22.76-4.46,1.49-6.69,2.22l-.83-2.53a17.45,17.45,0,0,0,3.53-1.45c2.46-1.35,2.11-2.95-.42-4.33-3.35-1.83-6.68-3.71-10-5.66-1.39-.82-2.57-2.51-4-2.66a68.14,68.14,0,0,0-8.46-.11l0-1a5.49,5.49,0,0,0,.7,0C205.11,131,211.08,131.78,217,130Z" transform="translate(-8.15 -3.96)"/><path class="cls-3" d="M157.8,39.17c3.47,0,7-.17,10.42.05,3.65.22,7.27.9,10.91,1.24,10.08.94,20.15,2.23,30.24,2.52a35.55,35.55,0,0,1,4.65.48c4.13.7,8.08,1.95,12.2,2.56a23.91,23.91,0,0,1,5.71,1.15,21.33,21.33,0,0,1,6.38,3.7c3.14,2.92,7.33,4.91,8.58,9.68.45,1.73,2.13,3.11,3.05,4.76a36.67,36.67,0,0,1,4.69,18.29c-.05,9.61-1.78,19-3.36,28.44-1,6-4.88,9.26-9.39,12.2l-.83.52c-4.21,2.52-8.86,3.72-13.8,4.51-3.51.56-7.14-.28-10.29.7-5.88,1.81-11.85,1.05-17.73,1.86a5.49,5.49,0,0,1-.7,0,24.2,24.2,0,0,1-2.67-.29c-1.48-.15-2.95-.41-4.43-.53-6.11-.49-12.22-1-18.34-1.38-3.22-.18-6.47.07-9.7,0a15.67,15.67,0,0,1-3.27-.87c-.77-.21-1.54-.42-2.32-.59-1.26-.27-2.53-.53-3.8-.78a7.42,7.42,0,0,0-2.37-.38c-5.1.78-9.88-.55-14.69-1.93-2.47-.7-5-1.09-7.49-1.8-5.3-1.51-10.67-3.19-14.24-7.64a48.75,48.75,0,0,1-6.84-11.39,52.92,52.92,0,0,1-3.13-10c-.59-2.79-2.18-5.47-1.74-8.47.4-2.73,1.2-5.4,1.73-8.11a10.52,10.52,0,0,0,0-2.63c-.11-1.69-.64-3.44-.38-5.06a31.06,31.06,0,0,1,6.29-13.57c.59-.81,1.22-1.6,1.86-2.38a20,20,0,0,0,2.28-3c1.8-3.4,4.08-6,7.94-7.39C129.32,41.5,135.39,40,142,40.5c6.29.5,12.62.58,18.93.85,0-.16.06-.32.1-.49-.55-.12-1.1-.23-1.64-.38s-1.05-.32-1.57-.48C157.78,39.72,157.79,39.45,157.8,39.17Z" transform="translate(-8.15 -3.96)"/><path class="cls-4" d="M186,152c-2.47.34-5,.37-7.46.54,0-.14,0-.28,0-.42-3.14,0-6.4.48-9.4-.18-1.84-.41-3.78-2.32-4.73-4.07-.54-1,.63-3.14,1.45-4.51s2.29-2.4,3.32-3.69a12.43,12.43,0,0,0,2.35-3.71c.79-2.58,1.71-3.24,4.32-3.18,6.86.17,13.73.16,20.6.19q1.08,0,2.16,0A68.14,68.14,0,0,1,207,133c1.4.15,2.58,1.84,4,2.66,3.28,1.95,6.61,3.83,10,5.66,2.53,1.38,2.88,3,.42,4.33a17.45,17.45,0,0,1-3.53,1.45,27.85,27.85,0,0,1-3.76.84C204.73,149.42,195.34,150.71,186,152Z" transform="translate(-8.15 -3.96)"/><path d="M177,169c5.92,2.08,9.7,7.37,15.24,10.06,4.47,2.17,8.71,4.8,13.19,7,1.17.56,2.82.13,4.25.15a5.05,5.05,0,0,1,2.78.58l-2.4,1.16a19.59,19.59,0,0,0,3.91,1.75l1,.18-.5,2.66c-1.26-.4-2.56-.67-3.81-1-7.8-1.87-14.52-5.68-20.84-10.31-4.95-3.62-9.86-7.28-14.69-11.06l1.23-1.58A2.32,2.32,0,0,0,177,169Z" transform="translate(-8.15 -3.96)"/><path class="cls-1" d="M157.65,134c-.14-1.43.68-2.34,2.3-2.23a18.15,18.15,0,0,1,3.93.3c.67.19,1.65,1.66,1.5,1.88-1.74,2.56-3.67,5-5.54,7.46l-1.05-.26C158.4,138.81,157.88,136.44,157.65,134Z" transform="translate(-8.15 -3.96)"/><path d="M164.74,288.94c-4.95-2.23-10.13-4.14-14.68-7a31.84,31.84,0,0,1-4.16-3.21l2.38-1.38a18.19,18.19,0,0,0,5.16,3.36c5,2.58,10.44,4.5,15.69,6.72a60.24,60.24,0,0,0,5.78,2.53c5.27,1.6,10.76,2.63,15.87,4.62a35.77,35.77,0,0,0,12.68,2.71c3.55.06,4.08-.59,3.42-4-.58-3-.88-6.16-1.35-9.24-.06-.38-.11-.77-.17-1.16l2.41-.33c0,.21.09.43.14.64,1.17,4.5,2.1,9.07,3.34,13.55a3.39,3.39,0,0,0,2.12,2.06c6.18,1.16,12.3,2.89,18.7,2.21,3.17-.33,6.94-5.53,6.07-8.76l-4.36,3.26-.76-.66c.67-1.33,1.05-3,2.08-3.94,3.6-3.36,7-6.91,8.61-11.62a39,39,0,0,1,5.09-9.8c2.4-3.48,4.85-6.93,7.18-10.45a8.36,8.36,0,0,0,1.63-6.33c-.64-3.65,2.18-6.06,3.61-9,2-4,6.22-5.25,9.1-8.16a47.61,47.61,0,0,1,15.22-10.86,2.24,2.24,0,0,0,.08-1.83c-4.07-2.29-4.48-6.73-5.88-10.41-1.33-3.52-1.79-7.42-2.3-11.2-.21-1.54.44-3.21.73-5-.43-.14-1-.17-1.29-.47-.53-.59-1.34-1.49-1.19-2a3.5,3.5,0,0,1,1.91-1.72c2.45-1.06,5-1.88,7.45-3,.37-.17.6-1.34.43-1.91-.59-2-.06-3.07,2-3.32a18.94,18.94,0,0,1,2.5,0c4.62.07,7.13-3.43,10.25-6,2.79-2.27,5.86-4.19,8.62-6.48a69.1,69.1,0,0,0,7.59-7.11c6.62-7.48,13.08-15.11,16.56-24.7a58.56,58.56,0,0,0,1.79-6c.39-1.6-.22-2.46-2-2-1.12.32-2.23.68-3.35,1a9.69,9.69,0,0,1-2.16.51c-5.19.18-10.39.3-15.58.46-.78,0-1.55.06-2.33.1l-.14-2.95c1.6-.05,3.19-.12,4.79-.27a4.2,4.2,0,0,0,2.75-1.6,2.1,2.1,0,0,1,3.12-.86,10.89,10.89,0,0,0,8.45.79,68.12,68.12,0,0,1,9.47-2.84,11.91,11.91,0,0,0,7.87-5.13c2.77-3.82,5.95-7.34,7.48-12,1.21-3.66,1.78-7.06-1.54-10-1.82-1.59-3.47-3.38-5.37-4.85-5.3-4.07-10.28-8.78-17.46-9.39a7.57,7.57,0,0,1-1.86-.71c-3.84-1.46-7.74-2.81-11.53-4.41-2.57-1.1-5-2.56-7.48-3.86l.18-.35,7.36,2c.12-.38.23-.76.35-1.14l-2.38-.89.79-2.13A6.28,6.28,0,0,0,320,73c.28-.15.82.06,1.2.21,7,2.89,13.93,5.8,20.91,8.67a27.82,27.82,0,0,0,3.11.84,42.43,42.43,0,0,1,0-4.26c.29-2.59,2.34-4,3.95-5.75,5-5.47,9.43-11.41,14.66-16.61a67.68,67.68,0,0,0,12-16.44c4.37-8.2,8.15-16.72,12-25.17A30.67,30.67,0,0,0,390,7.45c.25-1.34.15-2-.41-2.22l.19-1.11c2.8.59,3.08,3.35,2,6.47-1.27,3.89-3.48,7.46-5.2,11.2-.66,1.42-1.06,3-1.64,4.41-1.7,4.24-3,8.69-5.24,12.66A112.09,112.09,0,0,1,369.14,55.4c-5.39,6.64-11.78,12.45-17.34,19-1.89,2.21-2.83,5.39-3.62,8.28-.26,1,1.19,2.51,2.08,3.61s1.95,1.91.24,3.25c-.33.26-.21,1.71.19,2.16a19.4,19.4,0,0,0,4.08,3.66c2.56,1.58,3.21,4.14,3.95,6.68.62,2.15,1,4.38,1.59,6.53.48,1.68.12,2.68-1.71,2.71a2.82,2.82,0,0,0-3,3,14.67,14.67,0,0,1-4.16,9.87c-1.3,1.31-3.56,1.71-5.43,2.39a8.7,8.7,0,0,1-2.43,0c1.27,2.77.21,5-.82,7.26-1.56,3.48-2.85,7.07-4.49,10.51a32,32,0,0,1-3.09,4.33,42.58,42.58,0,0,1-3.62,4.69,10.07,10.07,0,0,0-2.18,1.84c-1,1.44-1.69,3.05-2.52,4.58-.15.3-.55.62-.49.85,1.18,5.12-3.9,6.1-6.12,8.84-2,2.51-5.27,4-7.74,6.21-3.46,3.1-6.61,6.56-10.09,9.64a28.28,28.28,0,0,1-6.14,4.11c-3.61,1.83-7,3.79-9.2,7.38-1,1.7-2.35,2.66-4.75.69-.34,1.74-1,3.09-.8,4.34a39.54,39.54,0,0,0,7.58,19.29c1.34,1.77,4.08,2.4,5.8,4,2.7,2.44,6.38,2.18,9.35,3.93,2.09,1.23,4.3,2.27,6.5,3.32l-1,2.12A83.31,83.31,0,0,0,301.3,231c-1.74-.63-3.66-1-5.48.41l1.25,1.59c-3.87,1.35-4,1.28-6.56-1.8a2.05,2.05,0,0,0-1.68-.71c-4.09,1.28-8.5,2-11.38,5.67-4,5.1-8,10.14-11.82,15.37-.79,1.1-.67,2.91-.82,4.41-.12,1.2,0,2.41,0,4.2-1.39-.93-2-1.36-2.56-1.73l-8,14.58,3.44-1c.19.2.37.41.56.62a31.43,31.43,0,0,1-1.56,2.78c-1.89,2.71-4,5.26-5.73,8.07-4.37,7.24-8.55,14.59-12.86,21.87-.92,1.57-2,2.86-3.82.74-.33-.39-1.31-.28-2-.28-1.14,0-2.27.19-3.4.13-2.31-.12-4.64-.63-6.92-.46s-4.93-.37-7.07,1.63c-.48.44-2.48-.55-3.67-1.11s-2-1.63-3.08-2c-7.72-2.28-15.52-4.26-23.18-6.68-3.93-1.24-7.62-3.22-11.43-4.83C170.58,291.33,167.62,290.24,164.74,288.94Z" transform="translate(-8.15 -3.96)"/><path d="M160.45,355.31a23.84,23.84,0,0,0,6.21.31c1.66-.08,3.3-.59,5-.83.77-.11,1.91-.36,2.3,0,1.76,1.78,3.45,1.68,5.37.39a2.26,2.26,0,0,1,1.45-.17c2.55.35,5.08.86,7.64,1.11a57.16,57.16,0,0,0,7.4.28c2-.06,3.75,0,5.24,1.62a4.12,4.12,0,0,0,2.65,1.17,54.51,54.51,0,0,0,7.45-.24c3.54-.37,7.05-1,10.58-1.48a5.79,5.79,0,0,1,.61,0c.23,0,.43,0,.5.13,1.62,2.31,3.28.68,5,.38-.32-2.26-1.16-3.28-3.37-2.68a3.81,3.81,0,0,1-1.63.15c-.55-.12-.87-.53-.46-1.57a13.84,13.84,0,0,1,3.3-4.39c.44-.43,1.7-.16,2.54,0s1.46.75,2.23.86c1.56.23,2.24.82,1.82,2.51-.12.5.38,1.17.59,1.76.31-.62.67-1.22.93-1.87s.4-1.31.59-2l.77.21c.1.82.19,1.64.33,2.86,2.5-2.25,4.74-4.34,8.7-2.19-1.51-3.16,0-4.77,1.68-5,3.3-.39,1.33-1.58.39-3a30.49,30.49,0,0,0,3.18-1.77,8.46,8.46,0,0,0,2.75-2.55,15.69,15.69,0,0,0,1.24-4.56,15.47,15.47,0,0,1,.51-2l2.49.5a2.64,2.64,0,0,0-.21.95c0,.44.5.9.78,1.35a5.89,5.89,0,0,0,1.36-.88,33.9,33.9,0,0,0,2.08-2.81l.54-2.75.91.24c1.69.5,2.45-.13,3.31-1.29,1.63-2.19,3-4.69,5-6.44,4.81-4.18,10.12-7.78,14.86-12A176.35,176.35,0,0,0,299,295.74c5.13-5.74,9.81-11.88,14.76-17.78.69-.83,1.84-1.85,2.75-1.82,2.56.09,3.3-1.59,3.5-3.39.52-4.43,1.48-8.92-.52-13.28a7.71,7.71,0,0,1-.2-2,72.33,72.33,0,0,0-1.49-9c-.32-1.18-1.92-2-2.95-3-.49-.47-1.49-1-1.42-1.34.36-1.85-.82-2.45-2-3.31a16.72,16.72,0,0,1-2.52-2.71l.57-.56c1.15.9,2.25,1.88,3.47,2.66.45.28,1.19.1,1.8.14,0-.54.25-1.28,0-1.58-1.16-1.37-2.25-3-3.77-3.83l-1.16-.59,1-2.12a62.26,62.26,0,0,1,6.62,3.5c1.66,1,2.56,3.54,3.43,5.54,3.06,7,5.66,14.28,5,22.12-.26,3.17-1.72,6.24-2,9.41-.61,6.11-1,12.26-1.11,18.4-.13,5.63.14,11.27.33,16.9.05,1.65.46,3.29.59,4.94.5,5.93.81,11.87,1.46,17.78.61,5.52,1.5,11,2.43,16.47a16,16,0,0,0,1.65,4.36c.94,1.86,0,2.66-1.5,3.47-5.6,3-11.14,6.15-16.75,9.15l-.76-1.43c2-2,3.75-3.71,5.42-5.51a2.71,2.71,0,0,0,.75-1.81,21.69,21.69,0,0,0-.7-3.33l-1.51,2.66c-.22.41-.32,1-.66,1.22a29.19,29.19,0,0,1-4.76,2.84c-.94.39-2.2,0-3.31,0,.57-1,1-2.66,1.75-2.83,2.58-.58,2.1-2,1.61-3.74-1.09-3.84-.24-4.73,3.72-4.35a20.62,20.62,0,0,0,5.44-.11c.63-.11,1.07-1.39,1.78-2.4l1.51.39a16.87,16.87,0,0,1-.77-2.32c-.38-2.09-1.76-4.13.18-6.29.57-.65.44-2.1.33-3.15-.67-6.26-1.55-12.49-2.09-18.75-.3-3.46,0-7-.1-10.44-.11-3.22-.36-6.45-.7-9.66-.46-4.39-.78-8.7,1.5-12.79a3.55,3.55,0,0,0-.58-4.59c-3.41,4.37-6.7,8.62-10,12.85a19.16,19.16,0,0,0-2.14,2.4,27.5,27.5,0,0,0-1.41,3.94,6.15,6.15,0,0,1-.81,2.19c-2.14,2.32-4.29,4.64-6.64,6.73-2,1.74-4.28,3.07-6.28,4.77a35.59,35.59,0,0,0-3.52,3.83,16.22,16.22,0,0,1-1.62,1.87c-3.73,3-7.76,5.73-11.17,9.07-2.83,2.76-4.95,6.24-7.4,9.39-.29.38-.61.9-1,1-3.39,1-5.15,3.62-6.94,6.32-1.38,2.09-2.84,4.12-4.53,6.55-2.92-1.11-3.24,2.23-4.91,3.88.28.13.41.25.54.25,1.17,0,2.33,0,3.49,0-.42,1.09-.54,2.51-1.32,3.2a73.23,73.23,0,0,1-6.37,4.67c1.39,1.49,1.16,2.81-1,3.32a28.74,28.74,0,0,1-4.37.4l-.54.7,4.1,4.83c.94-3.43,2-3.53,4-1.74,1,.86,2.84.66,4.27,1,1.84.47,3.13,1.2,1.91,3.52-.29.56.4,1.64.64,2.48.9-.26,2.18-.23,2.62-.83,1.25-1.66,2.48-2.73,4.65-1.48,1-1.65,2.11-2.74,4.32-2.07.89.27,2.39-.61,3.2-1.4.37-.35-.09-1.84-.49-2.66-1.92-3.94-.08-10.07,4-12.13a21,21,0,0,1,.26,2.7c0,1.68.25,3.09,1.81,4.1s1.08,2.15-.09,3.24c-2,1.87-2.8,6.62-1.56,9,1.09,2.06,2.69,2.29,4.36.71a5.18,5.18,0,0,1,2.26-1.39,3,3,0,0,1,2.46.49,1.27,1.27,0,0,1,.21.8,2.92,2.92,0,0,1-.43,1.56,10.91,10.91,0,0,1-3.26,3.13c-5.56,2.94-11.26,5.62-16.82,8.56-1.43.75-2.51,2.15-3.78,3.21-2.26,1.9-3.18,1.72-5.49.07-2.92-2.08-4.19-5.18-5.73-8.16a6.71,6.71,0,0,0-.85-1.48c-2.7-3-5.65-5.77-8.08-8.95-3-3.93-7.21-5.27-11.61-5.76a68.23,68.23,0,0,1-12.37-2c-3.55-1.07-7.57-.67-11.38-.75-4.92-.1-9.84.06-14.75-.07a20,20,0,0,1-4.53-1c-1.65-.45-3.24-1.35-4.89-1.46-9.26-.6-18.52-1.24-27.78-1.36a15.5,15.5,0,0,1-8.74-2.75c-3.33-2.23-6.39-5-10-6.69-3.75-1.75-7.94-2.6-12-3.63l-.81-.2.7-2.8a15.88,15.88,0,0,0,2.07-.38c1.13-.24,2.38-1,3.34-.73a69.64,69.64,0,0,1,7.8,3,5.42,5.42,0,0,1,1.78,1.3,7.74,7.74,0,0,0,8.64,2.21c.24,2.48.75,2.7,2.9,1.67,1.06.5,1.7.82,2.36,1.1a12.73,12.73,0,0,0,1.56.58C154.71,353.58,157.53,354.67,160.45,355.31Z" transform="translate(-8.15 -3.96)"/><path d="M122.81,326.85c-.18-.57.28-1.32.45-2,.54.47,1.44.87,1.57,1.44a27.07,27.07,0,0,0,7.8,13.57,7.54,7.54,0,0,1,.74,1.14c-.24.33-.48.89-.68.88-.6,0-1.43-.11-1.74-.51C127.5,336.95,124.45,332.28,122.81,326.85Z" transform="translate(-8.15 -3.96)"/><path d="M121.4,343.91l-.7,2.8c-4.2-1.08-8.32-2.26-11.73-5.18a6.73,6.73,0,0,0-2-.76c-1.6-.58-3.56-.43-3.94-3-.13-.88-1.87-1.45-2.76-2.28-2.8-2.6-5.52-5.29-8.35-7.86l-.36-.32,1.86-2.15c3.22,2.78,6.42,5.59,9.68,8.32,3.67,3.08,7.1,6.58,12.2,7.37,2.23.34,4.61.49,5.88,3C121.18,343.89,121.27,343.91,121.4,343.91Z" transform="translate(-8.15 -3.96)"/><path d="M168.22,39.22c-3.46-.22-7-.05-10.42-.05,0,.28,0,.55,0,.83.52.16,1,.34,1.57.48s1.09.26,1.64.38c0,.17-.07.33-.1.49-6.31-.27-12.64-.35-18.93-.85-6.57-.53-12.64,1-18.74,3.19-3.86,1.39-6.14,4-7.94,7.39A20,20,0,0,1,113,54c-.64.78-1.27,1.57-1.86,2.38l-.62-.47c.94-1.27,1.68-2.71,2.55-4a38.91,38.91,0,0,1,3.44-5,24.37,24.37,0,0,1,11.88-7.25c3.78-1,7.77-1.17,11.67-1.68,1-.12,2.32.32,2.94-.18,3.91-3.17,8.31-1.58,12.52-1.5,7.28.13,14.56.41,21.83.65a30.91,30.91,0,0,1,5.71.38c3.08.68,4.88-.67,5.63-3.36.69-2.47,2.52-3.69,4.46-4.71,4.26-2.23,8.57-4.38,12.88-6.52l1.15,2.35A36.22,36.22,0,0,0,200.71,29c-3.12,2.43-6.56,4.43-9.72,6.8-1.3,1-1,2,.77,2.23,3.79.4,7.59.77,11.38,1.19q4.46.49,8.89,1.07c.8.1,1.63.33,2.44.49L214,43.46a35.55,35.55,0,0,0-4.65-.48c-10.09-.29-20.16-1.58-30.24-2.52C175.49,40.12,171.87,39.44,168.22,39.22Z" transform="translate(-8.15 -3.96)"/><path d="M163.88,132.11a18.15,18.15,0,0,0-3.93-.3c-1.62-.11-2.44.8-2.3,2.23.23,2.4.75,4.77,1.14,7.15l1.05.26c1.87-2.47,3.8-4.9,5.54-7.46C165.53,133.77,164.55,132.3,163.88,132.11Zm-.33,26.16a4,4,0,0,0-3.45-2.37,14.91,14.91,0,0,1-1.5-.08q-5.43-.85-3.09-5.76c.11-.22.27-.42.38-.65,1.36-2.91,2.85-5.61.82-9.08-1.19-2.05-1.07-4.82-1.79-7.19-.28-.9-1.25-2.28-1.9-2.28-6.25,0-11.76-2.78-17.6-4.28-2.87-.74-5.8-1.3-8.58-2.28-3.07-1.08-6.39-2-8.89-4-3.65-2.83-7.23-5.72-8.73-10.79a40,40,0,0,0-1.86-4.92l1-.36a48.75,48.75,0,0,0,6.84,11.39c3.57,4.45,8.94,6.13,14.24,7.64,2.47.71,5,1.1,7.49,1.8,4.81,1.38,9.59,2.71,14.69,1.93a7.42,7.42,0,0,1,2.37.38c1.27.25,2.54.51,3.8.78.78.17,1.55.38,2.32.59a15.67,15.67,0,0,0,3.27.87c3.23.11,6.48-.14,9.7,0,6.12.35,12.23.89,18.34,1.38,1.48.12,2.95.38,4.43.53a24.2,24.2,0,0,0,2.67.29l0,1q-1.08,0-2.16,0c-6.87,0-13.74,0-20.6-.19-2.61-.06-3.53.6-4.32,3.18a12.43,12.43,0,0,1-2.35,3.71c-1,1.29-2.48,2.3-3.32,3.69s-2,3.54-1.45,4.51c1,1.75,2.89,3.66,4.73,4.07,3,.66,6.26.18,9.4.18,0,.14,0,.28,0,.42,2.49-.17,5-.2,7.46-.54,9.38-1.26,18.77-2.55,28.12-4a27.85,27.85,0,0,0,3.76-.84l.83,2.53-8.44,2.72c-2.13.68-4.27,1.34-6.38,2.06-6.27,2.15-12.66,2.28-19.2,1.67-2.77-.25-5.62.59-8.43.56-3.11,0-6.21-.51-9.31-.76a5.78,5.78,0,0,0-1.49.38,15.85,15.85,0,0,0,1.39,2.19c2.81,3.06,5.67,6.09,8.52,9.11a14.12,14.12,0,0,0,1,1l-1.23,1.58c-2.2-1.71-4.37-3.44-6.53-5.2S164.93,160.7,163.55,158.27Z" transform="translate(-8.15 -3.96)"/><path d="M124,302.82c-.91-.05-2.15.27-2.66-.21-1.85-1.74-3.89-3.52-5.08-5.7a126,126,0,0,1-7.87-16.36c-3-8.07-6.07-16.32-5.52-25.1.38-6.17,1.85-12.28,2.9-18.41a6.2,6.2,0,0,1,1-1.8l.61.2c-.17,1.08-.34,2.17-.53,3.26-.79,4.57-2.3,9.15-2.2,13.7.14,6.77,1.09,13.59,4,19.91a36,36,0,0,1,2.64,6.19c1.67,6.87,6.48,12.14,9.15,18.5.54,1.3,2,2.19,2.86,3.41A8.27,8.27,0,0,1,124,302.82Z" transform="translate(-8.15 -3.96)"/><path d="M110.1,56.48l.42-.53.62.47A31.06,31.06,0,0,0,104.85,70c-.26,1.62.27,3.37.38,5.06a10.52,10.52,0,0,1,0,2.63c-.53,2.71-1.33,5.38-1.73,8.11-.44,3,1.15,5.68,1.74,8.47a52.92,52.92,0,0,0,3.13,10l-1,.36c-1.57-3.54-3.51-7-5.12-10.51a7.53,7.53,0,0,1-.68-2.83c-.07-3-.1-6,.05-9a4.25,4.25,0,0,1,1.14-2.8c1.95-1.64,1.68-3.44.43-5s-1.11-3.08-.75-4.89C103.5,64.27,106.82,60.42,110.1,56.48Z" transform="translate(-8.15 -3.96)"/><path d="M189,263.37a50,50,0,0,1,5-1.09l.15.6c0,.13.07.26.1.39l-2.15,1c1.28,2.56,3.85,2.89,6.17,3.53.17.05,1.13-1.36,1-1.78-.31-.75-1.25-1.23-1.82-1.91a11.87,11.87,0,0,1-1-1.77c.67-.23,1.41-.76,2-.62a8.84,8.84,0,0,1,3.32,1.53,34,34,0,0,1,3.67,3.73c1,1.13,2,2.28.87,4a1.84,1.84,0,0,0-.08,1.67c2.53,3,1.06,6.62,1.62,9.93l-2.41.33c-.55-3.92-1-7.86-5.5-9.82-2.06-.91-3.9-2.74-6-3a61.4,61.4,0,0,0-20.23.37c-6.46,1.22-13.18,1-20.44,1.5-1.09,0-2.84-.07-4.59,0s-2.71.87-1.91,2.94a7.38,7.38,0,0,0,1.59,2.51l-2.38,1.38c-2.2-1.95-4.28-4.11-6.53-6a24.3,24.3,0,0,0-3.78-2.21l-.43.6,1.16,2.49c-2.49.57-3.63-1.1-4.51-2.53-3.18-5.15-6.39-10.3-9.16-15.67-4.18-8.12-8.19-16.29-14.51-23-.22-.22-.26-.59-.41-.89-.36-.76-.74-1.52-1.11-2.28-.81.62-2,1.07-2.36,1.89-1.71,3.88-3.6,7.74-5,11.75l-1.25-.43c.27-.79.52-1.57.76-2.37a72.61,72.61,0,0,1,3.72-8.91c.54-1.2,1.26-2.32,1.9-3.48l-.64-.58c-.5.36-1.18.61-1.49,1.1-1,1.53-2,3-3,4.58l-1.75-1c1.17-2,2.27-3.9,3.22-5.88.62-1.29,1.25-1.8,2.57-1.75,1,0,2,0,3,0,4,.25,3.46.49,4.9,4.11s3.95,6.6,6.27,9.67c3.25,4.29,7.4,7.87,7.67,14,.09,2.13,2,4.46,3.68,6.19a84,84,0,0,0,7.51,6.41,10.29,10.29,0,0,1,1.25,1.22c2.93,3.49,6.52,3.77,10.81,2.94,4.45-.85,9.08-.77,13.61-1.29,2.36-.27,4.67-1,7-1.43a17.52,17.52,0,0,1,3.65-.5c3.2.08,6.43.68,9.58.37C184.59,265.54,186.73,264.09,189,263.37Z" transform="translate(-8.15 -3.96)"/><path d="M98.76,223.85,97,228.32l-.85-.35c-.91-2.11,1.27-2.95,1.92-4.42Z" transform="translate(-8.15 -3.96)"/><path d="M103.54,291c.29.69.47,1.41.9,2.72-1.07-.51-1.63-.6-1.88-.93a48.06,48.06,0,0,1-4.41-6.09c-1.13-2.08-1.56-4.54-2.59-6.7-3.21-6.71-2.29-13.8-2.07-20.82.19-5.94,2.7-11.28,4.57-16.77l1.25.43c-.23.7-.45,1.4-.65,2.11a111.19,111.19,0,0,0-3.08,16.63c-.43,3.6-.81,7.56.25,10.9C97.85,278.79,100.92,284.8,103.54,291Z" transform="translate(-8.15 -3.96)"/><path d="M90.82,323c.86.73,1.71,1.47,2.57,2.22l-1.86,2.15a12.52,12.52,0,0,0-2.88-1.8L85.2,324l.81-2.55a8.4,8.4,0,0,0,3.32.65A2.74,2.74,0,0,1,90.82,323Z" transform="translate(-8.15 -3.96)"/><path d="M77.62,316.95c3.1.85,5.45,3.35,8.39,4.54L85.2,324c-3.46-1.48-6.93-2.92-10.41-4.36-1.65-.68-3.52-1-5-1.94A9.55,9.55,0,0,1,66.19,314a3.5,3.5,0,0,1-.22-.67l1.44-.12c1.22.5,2.08.87,3,1.19C72.78,315.25,75.15,316.28,77.62,316.95Z" transform="translate(-8.15 -3.96)"/><path class="cls-1" d="M122.81,326.85c1.64,5.43,4.69,10.1,8.14,14.53.31.4,1.14.47,1.74.51.2,0,.44-.55.68-.88a7.54,7.54,0,0,0-.74-1.14,27.07,27.07,0,0,1-7.8-13.57c-.13-.57-1-1-1.57-1.44C123.09,325.53,122.63,326.28,122.81,326.85ZM304.55,235l-4.27-1.65C301.19,236,301.89,236.29,304.55,235Zm-183.17,67.6c.51.48,1.75.16,2.66.21a8.27,8.27,0,0,0-.73-2.41c-.85-1.22-2.32-2.11-2.86-3.41-2.67-6.36-7.48-11.63-9.15-18.5a36,36,0,0,0-2.64-6.19c-2.88-6.32-3.83-13.14-4-19.91-.1-4.55,1.41-9.13,2.2-13.7.19-1.09.36-2.18.53-3.26l-.61-.2a6.2,6.2,0,0,0-1,1.8c-1,6.13-2.52,12.24-2.9,18.41-.55,8.78,2.55,17,5.52,25.1a126,126,0,0,0,7.87,16.36C117.49,299.09,119.53,300.87,121.38,302.61Zm28.68-20.68c4.55,2.87,9.73,4.78,14.68,7,2.88,1.3,5.84,2.39,8.75,3.62,3.81,1.61,7.5,3.59,11.43,4.83,7.66,2.42,15.46,4.4,23.18,6.68,1.12.33,2,1.45,3.08,2s3.19,1.55,3.67,1.11c2.14-2,4.71-1.45,7.07-1.63s4.61.34,6.92.46c1.13.06,2.26-.14,3.4-.13.68,0,1.66-.11,2,.28,1.81,2.12,2.9.83,3.82-.74,4.31-7.28,8.49-14.63,12.86-21.87,1.71-2.81,3.84-5.36,5.73-8.07a31.43,31.43,0,0,0,1.56-2.78c-.19-.21-.37-.42-.56-.62l-3.44,1,8-14.58c.53.37,1.17.8,2.56,1.73,0-1.79-.1-3,0-4.2.15-1.5,0-3.31.82-4.41,3.79-5.23,7.85-10.27,11.82-15.37,2.88-3.71,7.29-4.39,11.38-5.67a2.05,2.05,0,0,1,1.68.71c2.57,3.08,2.69,3.15,6.56,1.8l-1.25-1.59c1.82-1.45,3.74-1,5.48-.41a83.31,83.31,0,0,1,8.47,3.43l1.16.59c1.52.8,2.61,2.46,3.77,3.83.26.3,0,1,0,1.58-.61,0-1.35.14-1.8-.14-1.22-.78-2.32-1.76-3.47-2.66l-.57.56a16.72,16.72,0,0,0,2.52,2.71c1.21.86,2.39,1.46,2,3.31-.07.34.93.87,1.42,1.34,1,1,2.63,1.8,2.95,3a72.33,72.33,0,0,1,1.49,9,7.71,7.71,0,0,0,.2,2c2,4.36,1,8.85.52,13.28-.2,1.8-.94,3.48-3.5,3.39-.91,0-2.06,1-2.75,1.82-4.95,5.9-9.63,12-14.76,17.78a176.35,176.35,0,0,1-13.88,13.87c-4.74,4.24-10.05,7.84-14.86,12-2,1.75-3.42,4.25-5,6.44-.86,1.16-1.62,1.79-3.31,1.29l-.91-.24c-3.67-.83-5.9.39-7,3.64a15.47,15.47,0,0,0-.51,2,15.69,15.69,0,0,1-1.24,4.56,8.46,8.46,0,0,1-2.75,2.55,30.49,30.49,0,0,1-3.18,1.77c.94,1.44,2.91,2.63-.39,3-1.72.2-3.19,1.81-1.68,5-4-2.15-6.2-.06-8.7,2.19-.14-1.22-.23-2-.33-2.86l-.77-.21c-.19.65-.34,1.33-.59,2s-.62,1.25-.93,1.87c-.21-.59-.71-1.26-.59-1.76.42-1.69-.26-2.28-1.82-2.51-.77-.11-1.46-.71-2.23-.86s-2.1-.42-2.54,0a13.84,13.84,0,0,0-3.3,4.39c-.41,1-.09,1.45.46,1.57l-.53,2a5.79,5.79,0,0,0-.61,0c-3.53.5-7,1.11-10.58,1.48a54.51,54.51,0,0,1-7.45.24A4.12,4.12,0,0,1,201,358c-1.49-1.64-3.25-1.68-5.24-1.62a57.16,57.16,0,0,1-7.4-.28c-2.56-.25-5.09-.76-7.64-1.11a2.26,2.26,0,0,0-1.45.17c-1.92,1.29-3.61,1.39-5.37-.39-.39-.39-1.53-.14-2.3,0-1.67.24-3.31.75-5,.83a23.84,23.84,0,0,1-6.21-.31c-2.92-.64-5.74-1.73-8.6-2.65a12.73,12.73,0,0,1-1.56-.58c-.66-.28-1.3-.6-2.36-1.1-2.15,1-2.66.81-2.9-1.67a7.74,7.74,0,0,1-8.64-2.21,5.42,5.42,0,0,0-1.78-1.3,69.64,69.64,0,0,0-7.8-3c-1-.28-2.21.49-3.34.73a15.88,15.88,0,0,1-2.07.38c-.13,0-.22,0-.25-.07-1.27-2.47-3.65-2.62-5.88-3-5.1-.79-8.53-4.29-12.2-7.37-3.26-2.73-6.46-5.54-9.68-8.32-.86-.75-1.71-1.49-2.57-2.22a2.74,2.74,0,0,0-1.49-.83,8.4,8.4,0,0,1-3.32-.65c-2.94-1.19-5.29-3.69-8.39-4.54-2.47-.67-4.84-1.7-7.25-2.59-.88-.32-1.74-.69-3-1.19,5.65-4.4,10.32-9.4,17.37-10.6,3.83-.65,4.66,0,6,3.66,1.88,5.07,4,10.07,6.25,15a29.65,29.65,0,0,0,4,5.91c.48.61,1.61.69,2.44,1,.32-.92,1.06-2,.85-2.75a10.46,10.46,0,0,0-2-3.43c-3.69-4.94-5-10.87-6.68-16.56-1.89-6.52-3.1-13.25-4.45-19.91-.57-2.85-1.58-6-.89-8.6.77-3-.49-5.38-.51-8,0-6.37-.41-12.88,1.61-19a119.74,119.74,0,0,1,6.31-14.32c.47-1,1-1.92,1.57-2.85,1-1.55,2-3.05,3-4.58.31-.49,1-.74,1.49-1.1l.64.58c-.64,1.16-1.36,2.28-1.9,3.48A72.61,72.61,0,0,0,98.82,240c-.24.8-.49,1.58-.76,2.37-1.87,5.49-4.38,10.83-4.57,16.77-.22,7-1.14,14.11,2.07,20.82,1,2.16,1.46,4.62,2.59,6.7a48.06,48.06,0,0,0,4.41,6.09c.25.33.81.42,1.88.93-.43-1.31-.61-2-.9-2.72-2.62-6.16-5.69-12.17-7.71-18.52-1.06-3.34-.68-7.3-.25-10.9a111.19,111.19,0,0,1,3.08-16.63c.2-.71.42-1.41.65-2.11,1.35-4,3.24-7.87,5-11.75.36-.82,1.55-1.27,2.36-1.89.37.76.75,1.52,1.11,2.28.15.3.19.67.41.89,6.32,6.76,10.33,14.93,14.51,23,2.77,5.37,6,10.52,9.16,15.67.88,1.43,2,3.1,4.51,2.53l-1.16-2.49.43-.6a24.3,24.3,0,0,1,3.78,2.21c2.25,1.91,4.33,4.07,6.53,6A31.84,31.84,0,0,0,150.06,281.93Zm74.77,30.57-.67-1.38-4.78,2.63c.18.36.35.72.52,1.07Z" transform="translate(-8.15 -3.96)"/><path d="M104.37,325.38c.21.79-.53,1.83-.85,2.75-.83-.32-2-.4-2.44-1a29.65,29.65,0,0,1-4-5.91c-2.27-4.91-4.37-9.91-6.25-15-1.37-3.67-2.2-4.31-6-3.66-7,1.2-11.72,6.2-17.37,10.6l-1.44.12c-.34-1.59.61-3,2.17-4.19,4.33-3.2,8.42-6.72,12.82-9.82,1.36-1,3.37-1.14,5.12-1.35,1.5-.18,2.42-.48,2.15-2.22-.74-4.76-1.5-9.52-2.14-14.29a39,39,0,0,1-.41-6.2c.13-5.46.19-10.95.7-16.39.16-1.66.32-3.32.53-5a47,47,0,0,1,3.34-13.44c.22-.5.13-1.13.34-1.64A28,28,0,0,1,92,235.86c.5-.9,1.09-1.74,1.71-2.7l1.71,2.18c.73-1.28,1.45-2.49,2.15-3.67l1.75,1c-.56.93-1.1,1.87-1.57,2.85a119.74,119.74,0,0,0-6.31,14.32c-2,6.11-1.64,12.62-1.61,19,0,2.63,1.28,5,.51,8-.69,2.61.32,5.75.89,8.6,1.35,6.66,2.56,13.39,4.45,19.91,1.66,5.69,3,11.62,6.68,16.56A10.46,10.46,0,0,1,104.37,325.38Z" transform="translate(-8.15 -3.96)"/><path d="M122.8,221.23a7.13,7.13,0,0,0,3.93,1.66c4,.58,8,1.06,12,1.28a51.58,51.58,0,0,0,7.43-.47c2.71-.26,5.4-.78,8.1-.89,4.21-.18,8-1.58,11.83-3.17,3.6-1.5,7.42-2.48,10.95-4.11,6-2.78,11.74-6.32,17.92-8.67,3-1.14,6.76-.31,10.18-.31.47,0,.93.41,1.41.47,5.48.69,10.26,3.32,15,5.86,4.25,2.31,8.07,5.4,12.11,8.1.43.3,1.16.62,1.51.45a1.84,1.84,0,0,0,.56-1.47c-.42-6.16-1.35-12.22-3.95-17.9-1.13-2.46-5-4.47-7.65-4.47A5.74,5.74,0,0,1,220.2,196a11.71,11.71,0,0,0-5.76-3.48l.5-2.66c4.31.85,8.6,2,13,.45,2-.71,4.77,1,6.08,3.16.72,1.16,2,1.94,3,2.95.47.46,1.21,1.07,1.17,1.57-.54,6.76,2.86,12.67,4,19,.49,2.67,1.19,5.3,1.66,8,.1.62-.37,1.35-.58,2a8,8,0,0,1-1.65-1.45c-.72-1.09-1.26-2.3-2.06-3.81-2,2.33.66,3.62.73,5.27a39.61,39.61,0,0,0,1.09,5.64c-4-3.34-7.45-6.73-11.39-9.34-6.29-4.15-12.65-8.4-19.5-11.44a17.87,17.87,0,0,0-17.37,1c-3.23,2-7.23,2.76-10.85,4.18-3,1.17-5.91,2.66-9,3.71-5.09,1.74-10.18,3.7-15.43,4.72a82.86,82.86,0,0,1-15.75,1.24c-4.59,0-9.21-1.23-13.78-1.07-4.81.17-7.78-1.12-10.59-5.41-3.46-5.28-8.49-9.51-12.63-14.38-2.56-3-4.72-6.35-7.05-9.55-2.14-3-4.16-6-6.46-8.82-2.14-2.6-5-4.68-6.82-7.46-3.28-5-7.68-8.89-11.73-13.14A43.47,43.47,0,0,1,68.07,161c-.87-1.32-.7-3.27-1.33-4.79-1.39-3.37-3.16-6.57-4.45-10-1.37-3.63-2.31-7.43-3.56-11.12s-2.91-7.58-4.08-11.45-2.13-8-3-12.07c-1-5-1.78-10.14-2.79-15.19L50.58,96q1,4.14,1.89,8.29c.78,3.49,1.48,7,2.24,10.49.37,1.68.75,3.36,1.24,5,1,3.35,2,6.68,3.09,10,.3.93.89,1.78,1.19,2.71,1,3.18,1.8,6.43,3,9.55,1.21,3.29,2.84,6.43,4.11,9.7.9,2.35,1.36,4.87,2.3,7.21a12.76,12.76,0,0,0,2.61,4c4,4.13,8.2,8,12.14,12.19,3.64,3.82,7.21,7.74,10.48,11.88,2.48,3.13,4.28,6.81,6.69,10,2.78,3.69,5.82,7.17,8.88,10.63C114.44,212.31,118.55,216.85,122.8,221.23ZM230.23,195.1c.13-.34.27-.67.4-1l-3.39-.93-.24.42Z" transform="translate(-8.15 -3.96)"/><path d="M46,87.3c1.68-1.15,2.25-.92,2.61,1,.24,1.28.76,2.51,1.06,3.78s.62,2.62.92,3.93l-1.68.39a16.44,16.44,0,0,0-1.66-3.87c-.21-.4-1-1-1.1-.88-2.51,1.61-4.37-1.8-6.9-1.41L39,88.78c1.58-.2,3.2-.31,4.76-.59A5.72,5.72,0,0,0,46,87.3Z" transform="translate(-8.15 -3.96)"/><path d="M33.29,111.48c2.18-5.24,3.58-10.84,7.22-15.39a18.11,18.11,0,0,1,1.9-1.81c.07.1.14.19.2.29-1.74,3.71-3.56,7.38-5.19,11.14-.86,2-1.31,4.09-2.11,6.08-.2.51-1,.78-1.56,1.15C33.58,112.45,33.14,111.84,33.29,111.48Z" transform="translate(-8.15 -3.96)"/><path class="cls-1" d="M42.41,94.28a18.11,18.11,0,0,0-1.9,1.81c-3.64,4.55-5,10.15-7.22,15.39-.15.36.29,1,.46,1.46.54-.37,1.36-.64,1.56-1.15.8-2,1.25-4.12,2.11-6.08,1.63-3.76,3.45-7.43,5.19-11.14C42.55,94.47,42.48,94.38,42.41,94.28ZM97,228.32l1.8-4.47-.73-.3c-.65,1.47-2.83,2.31-1.92,4.42ZM17.7,146.76a53.21,53.21,0,0,0,1.66,17.73c1.47,5,2.2,10.44,6.27,14.43,2,2,2.38,4.46,1.56,7.36-1.63,5.79.05,11.2,2.85,16.27.5.91,1.82,1.38,2.77,2l.42-.59c-.86-2.15-1.79-4.27-2.56-6.45-1.54-4.37-.69-8.65.43-13S30.46,177,27,174.35A8.49,8.49,0,0,1,24,170c-1.4-5.63-2.61-11.33-3.51-17.07a30.41,30.41,0,0,1-.49-6,13.73,13.73,0,0,1,1.59-6,9.39,9.39,0,0,1,1.29.77c2.24,2.06,4.28,4.4,6.75,6.13a32.91,32.91,0,0,0,8,4c2.87,1,6,1.24,9,2.1a28.08,28.08,0,0,1,7.32,2.95,16.49,16.49,0,0,1,7,8.67,3.93,3.93,0,0,0,.87,1.77,6.87,6.87,0,0,0,2.06.81c.19-.66.73-1.49.51-1.94a59,59,0,0,0-4.29-7.86c-3.91-5.59-10-7.44-16.25-8.78-2.19-.47-4.62-.42-6.56-1.38-6.24-3.08-12.07-6.78-15-13.61a3.41,3.41,0,0,0-1.11-1.31c-1.46-1.07-2.52-.57-2.65,1.27-.11,1.58-.06,3.17-.21,4.74C18,141.74,17.82,144.25,17.7,146.76ZM194,262.28a50,50,0,0,0-5,1.09c-2.25.72-4.39,2.17-6.66,2.39-3.15.31-6.38-.29-9.58-.37a17.52,17.52,0,0,0-3.65.5c-2.34.46-4.65,1.16-7,1.43-4.53.52-9.16.44-13.61,1.29-4.29.83-7.88.55-10.81-2.94a10.29,10.29,0,0,0-1.25-1.22A84,84,0,0,1,128.9,258c-1.63-1.73-3.59-4.06-3.68-6.19-.27-6.13-4.42-9.71-7.67-14-2.32-3.07-4.88-6.17-6.27-9.67s-.89-3.86-4.9-4.11c-1-.07-2,0-3,0-1.32,0-2,.46-2.57,1.75-1,2-2.05,3.88-3.22,5.88-.7,1.18-1.42,2.39-2.15,3.67l-1.71-2.18c-.62,1-1.21,1.8-1.71,2.7a28,28,0,0,0-1.43,2.91c-.21.51-.12,1.14-.34,1.64a47,47,0,0,0-3.34,13.44l-2.28-.29c-1.37-.86-2.82-1.63-4.11-2.6-5.12-3.83-10.16-7.75-15.28-11.57-4.19-3.12-8.66-5.9-12.61-9.3C47,225.27,42,219.85,36.38,215c-5.3-4.56-8.1-10.75-11.67-16.45-2.11-3.36-4-6.83-6-10.26-.63-1.08-1.18-2.2-1.77-3.29-4.61-8.55-3.57-18.4-6.21-27.44-1.27-4.33-.72-9.25-.65-13.9.09-6.22.34-12.45.89-18.64a35.82,35.82,0,0,1,2.17-9.46c1.9-5,4.87-9.6,7.64-14.13,1.9-3.1,5.69-5.22,9-7.24,2.49-1.53,5.81-1.75,8.19-3.38a3.32,3.32,0,0,1,1.34-.57c2.53-.39,4.39,3,6.9,1.41.13-.09.89.48,1.1.88a16.44,16.44,0,0,1,1.66,3.87c1,5,1.76,10.15,2.79,15.19.83,4.06,1.77,8.11,3,12.07s2.78,7.61,4.08,11.45,2.19,7.49,3.56,11.12c1.29,3.4,3.06,6.6,4.45,10,.63,1.52.46,3.47,1.33,4.79a43.47,43.47,0,0,0,5.12,5.93c4.05,4.25,8.45,8.14,11.73,13.14,1.82,2.78,4.68,4.86,6.82,7.46,2.3,2.81,4.32,5.87,6.46,8.82,2.33,3.2,4.49,6.55,7.05,9.55,4.14,4.87,9.17,9.1,12.63,14.38,2.81,4.29,5.78,5.58,10.59,5.41,4.57-.16,9.19,1.08,13.78,1.07A82.86,82.86,0,0,0,158,225.54c5.25-1,10.34-3,15.43-4.72,3-1,5.95-2.54,9-3.71,3.62-1.42,7.62-2.17,10.85-4.18a17.87,17.87,0,0,1,17.37-1c6.85,3,13.21,7.29,19.5,11.44,3.94,2.61,7.37,6,11.39,9.34a39.61,39.61,0,0,1-1.09-5.64c-.07-1.65-2.7-2.94-.73-5.27.8,1.51,1.34,2.72,2.06,3.81a8,8,0,0,0,1.65,1.45c.21-.67.68-1.4.58-2-.47-2.67-1.17-5.3-1.66-8-1.18-6.38-4.58-12.29-4-19,0-.5-.7-1.11-1.17-1.57-1-1-2.32-1.79-3-2.95-1.31-2.14-4-3.87-6.08-3.16-4.44,1.55-8.73.4-13-.45l-1-.18a19.59,19.59,0,0,1-3.91-1.75l2.4-1.16a5.05,5.05,0,0,0-2.78-.58c-1.43,0-3.08.41-4.25-.15-4.48-2.16-8.72-4.79-13.19-7-5.54-2.69-9.32-8-15.24-10.06a2.32,2.32,0,0,1-.68-.42,14.12,14.12,0,0,1-1-1c-2.85-3-5.71-6.05-8.52-9.11a15.85,15.85,0,0,1-1.39-2.19,5.78,5.78,0,0,1,1.49-.38c3.1.25,6.2.72,9.31.76,2.81,0,5.66-.81,8.43-.56,6.54.61,12.93.48,19.2-1.67,2.11-.72,4.25-1.38,6.38-2.06l8.44-2.72c2.23-.73,4.47-1.46,6.69-2.22a3.49,3.49,0,0,0,1.79-1.58,5.9,5.9,0,0,1,7.06-3.3c1.63.33,3.12-.29,3.1-1.92,0-.86-1.49-2.29-2.45-2.42-3-.41-6.07-2.07-9.21-.23a3,3,0,0,1-2.16-.18c-2-.75-4-1.61-6-2.49a16.65,16.65,0,0,1-1.87-1.17c.06-.22.12-.44.19-.66,1.44-.15,2.87-.37,4.32-.43,6.42-.29,12.86-.84,19.28-.69,1.46,0,2.93.14,4.39.27,4.39.4,8.77,1.11,13.16,1.27,5.89.22,11.81-.2,17.71-.29,1.07,0,2.37-.17,3.16.35,2.61,1.75,5.39,1.35,8.21,1.17,6.88-.44,13.77-.85,20.65-1.28l2.65-.16c.78,0,1.55-.08,2.33-.1,5.19-.16,10.39-.28,15.58-.46a9.69,9.69,0,0,0,2.16-.51c1.12-.31,2.23-.67,3.35-1,1.79-.49,2.4.37,2,2a58.56,58.56,0,0,1-1.79,6c-3.48,9.59-9.94,17.22-16.56,24.7a69.1,69.1,0,0,1-7.59,7.11c-2.76,2.29-5.83,4.21-8.62,6.48-3.12,2.54-5.63,6-10.25,6a18.94,18.94,0,0,0-2.5,0c-2.05.25-2.58,1.32-2,3.32.17.57-.06,1.74-.43,1.91-2.44,1.09-5,1.91-7.45,3a3.5,3.5,0,0,0-1.91,1.72c-.15.49.66,1.39,1.19,2,.27.3.86.33,1.29.47-.29,1.76-.94,3.43-.73,5,.51,3.78,1,7.68,2.3,11.2,1.4,3.68,1.81,8.12,5.88,10.41a2.24,2.24,0,0,1-.08,1.83,47.61,47.61,0,0,0-15.22,10.86c-2.88,2.91-7.13,4.12-9.1,8.16-1.43,2.94-4.25,5.35-3.61,9A8.36,8.36,0,0,1,256,259c-2.33,3.52-4.78,7-7.18,10.45a39,39,0,0,0-5.09,9.8c-1.57,4.71-5,8.26-8.61,11.62-1,1-1.41,2.61-2.08,3.94l.76.66,4.36-3.26c.87,3.23-2.9,8.43-6.07,8.76-6.4.68-12.52-1.05-18.7-2.21a3.39,3.39,0,0,1-2.12-2.06c-1.24-4.48-2.17-9.05-3.34-13.55-.05-.21-.1-.43-.14-.64-.56-3.31.91-6.94-1.62-9.93a1.84,1.84,0,0,1,.08-1.67c1.13-1.68.16-2.83-.87-4a34,34,0,0,0-3.67-3.73,8.84,8.84,0,0,0-3.32-1.53c-.57-.14-1.31.39-2,.62l-2.23.56Z" transform="translate(-8.15 -3.96)"/><path d="M18.51,134.49c.13-1.84,1.19-2.34,2.65-1.27a3.41,3.41,0,0,1,1.11,1.31c2.91,6.83,8.74,10.53,15,13.61,1.94,1,4.37.91,6.56,1.38,6.27,1.34,12.34,3.19,16.25,8.78a59,59,0,0,1,4.29,7.86c.22.45-.32,1.28-.51,1.94a6.87,6.87,0,0,1-2.06-.81,3.93,3.93,0,0,1-.87-1.77,16.49,16.49,0,0,0-7-8.67,28.08,28.08,0,0,0-7.32-2.95c-2.94-.86-6.08-1.09-9-2.1a32.91,32.91,0,0,1-7.95-4c-2.47-1.73-4.51-4.07-6.75-6.13a9.39,9.39,0,0,0-1.29-.77,13.73,13.73,0,0,0-1.59,6l-2.34-.1c.12-2.51.35-5,.6-7.53C18.45,137.66,18.4,136.07,18.51,134.49Z" transform="translate(-8.15 -3.96)"/><path d="M20,146.86a30.41,30.41,0,0,0,.49,6c.9,5.74,2.11,11.44,3.51,17.07A8.49,8.49,0,0,0,27,174.35c3.48,2.64,5.19,6,4.12,10.23s-2,8.61-.43,13c.77,2.18,1.7,4.3,2.56,6.45l-.42.59c-.95-.67-2.27-1.14-2.77-2-2.8-5.07-4.48-10.48-2.85-16.27.82-2.9.48-5.34-1.56-7.36-4.07-4-4.8-9.38-6.27-14.43a53.21,53.21,0,0,1-1.66-17.73Z" transform="translate(-8.15 -3.96)"/><path d="M18.68,188.32c2,3.43,3.92,6.9,6,10.26,3.57,5.7,6.37,11.89,11.67,16.45C42,219.85,47,225.27,52.63,230.09c4,3.4,8.42,6.18,12.61,9.3,5.12,3.82,10.16,7.74,15.28,11.57,1.29,1,2.74,1.74,4.11,2.6-.09.29-.19.58-.28.87-1.39-.34-3-.33-4.14-1.08-5.35-3.59-10.56-7.36-15.81-11.1a223.34,223.34,0,0,1-34.6-30.63c-2.35-2.55-4.66-5.12-5.31-8.75-.13-.72-1.07-1.25-1.47-2-1.25-2.18-2.4-4.43-3.63-6.62-1-1.85-2.12-3.69-3.24-5.49-3.38-5.42-5.5-11.15-5.45-17.7,0-2.72-1.12-5.44-1.68-8.17a25.21,25.21,0,0,1-.8-4.84c-.07-9.74.14-19.5-.06-29.24C8,121.48,10.32,115,14,108.79a23.15,23.15,0,0,0,1.07-2.51,17.91,17.91,0,0,0-1.88.42,2.69,2.69,0,0,1-1.62.26c.37-.88.49-2.06,1.14-2.59,3.47-2.8,6.94-5.64,10.66-8.08a74.82,74.82,0,0,1,11.72-6.54,14.91,14.91,0,0,1,4-1l.19,1.49a3.32,3.32,0,0,0-1.34.57c-2.38,1.63-5.7,1.85-8.19,3.38-3.27,2-7.06,4.14-9,7.24C18,106,15,110.57,13.11,115.59A35.82,35.82,0,0,0,10.94,125c-.55,6.19-.8,12.42-.89,18.64-.07,4.65-.62,9.57.65,13.9,2.64,9,1.6,18.89,6.21,27.44C17.5,186.12,18,187.24,18.68,188.32Z" transform="translate(-8.15 -3.96)"/></svg>